<svg xmlns="http://www.w3.org/2000/svg" viewBox="0 0 900 560" role="img" aria-labelledby="title desc">
  <title id="title">Bangkok taxi illustration</title>
  <desc id="desc">A colorful taxi driving through a Bangkok street with transit signs.</desc>
  <defs>
    <linearGradient id="sky" x1="0" x2="0" y1="0" y2="1">
      <stop offset="0" stop-color="#dff7ef"/>
      <stop offset="1" stop-color="#f6fffb"/>
    </linearGradient>
    <linearGradient id="road" x1="0" x2="1" y1="0" y2="0">
      <stop offset="0" stop-color="#536471"/>
      <stop offset="1" stop-color="#26343d"/>
    </linearGradient>
    <linearGradient id="taxi" x1="0" x2="1" y1="0" y2="1">
      <stop offset="0" stop-color="#ffe66d"/>
      <stop offset="1" stop-color="#f2b705"/>
    </linearGradient>
    <filter id="shadow" x="-20%" y="-20%" width="140%" height="160%">
      <feDropShadow dx="0" dy="12" stdDeviation="14" flood-color="#0f172a" flood-opacity=".2"/>
    </filter>
  </defs>
  <rect width="900" height="560" fill="url(#sky)"/>
  <circle cx="774" cy="94" r="54" fill="#ffe8a3" opacity=".9"/>
  <path d="M0 370h900v190H0z" fill="url(#road)"/>
  <path d="M70 455h120m120 0h150m116 0h100m78 0h80" stroke="#f9fafb" stroke-width="10" stroke-linecap="round" opacity=".8"/>
  <g opacity=".95">
    <path d="M80 118h84v252H80z" fill="#ffffff"/>
    <path d="M176 82h118v288H176z" fill="#d7f5ee"/>
    <path d="M308 138h92v232h-92z" fill="#ffffff"/>
    <path d="M680 132h110v238H680z" fill="#d7f5ee"/>
    <path d="M802 98h54v272h-54z" fill="#ffffff"/>
    <g fill="#0d9488" opacity=".45">
      <rect x="100" y="145" width="42" height="42" rx="6"/>
      <rect x="197" y="112" width="34" height="46" rx="6"/>
      <rect x="247" y="112" width="28" height="46" rx="6"/>
      <rect x="330" y="164" width="42" height="38" rx="6"/>
      <rect x="704" y="162" width="56" height="42" rx="6"/>
      <rect x="818" y="128" width="24" height="48" rx="6"/>
    </g>
  </g>
  <g transform="translate(118 198)" filter="url(#shadow)">
    <path d="M126 158c20-48 57-76 109-84h186c44 0 82 29 116 84h57c34 0 62 28 62 62v55H62v-54c0-35 29-63 64-63z" fill="url(#taxi)"/>
    <path d="M225 100h183c31 0 58 20 82 59H164c16-34 37-54 61-59z" fill="#0f766e"/>
    <path d="M239 116h70v43h-112c12-24 26-38 42-43z" fill="#dff7ef"/>
    <path d="M326 116h75c23 0 43 14 61 43H326z" fill="#dff7ef"/>
    <rect x="292" y="50" width="102" height="40" rx="12" fill="#0f766e"/>
    <text x="343" y="77" text-anchor="middle" font-family="Arial, sans-serif" font-size="24" font-weight="800" fill="#fff">TAXI</text>
    <path d="M82 236h576v38H82z" fill="#0f172a" opacity=".12"/>
    <path d="M96 207h78c17 0 31 14 31 31v8H65v-8c0-17 14-31 31-31z" fill="#fef3c7"/>
    <path d="M529 207h78c17 0 31 14 31 31v8H498v-8c0-17 14-31 31-31z" fill="#fef3c7"/>
    <circle cx="158" cy="274" r="54" fill="#111827"/>
    <circle cx="158" cy="274" r="25" fill="#d1d5db"/>
    <circle cx="572" cy="274" r="54" fill="#111827"/>
    <circle cx="572" cy="274" r="25" fill="#d1d5db"/>
    <rect x="430" y="190" width="88" height="38" rx="8" fill="#ffffff" opacity=".72"/>
    <path d="M86 194h62" stroke="#f87171" stroke-width="12" stroke-linecap="round"/>
    <path d="M607 194h48" stroke="#bfdbfe" stroke-width="12" stroke-linecap="round"/>
  </g>
  <g transform="translate(636 224)">
    <rect width="150" height="96" rx="18" fill="#ffffff" stroke="#0d9488" stroke-width="5"/>
    <path d="M29 33h92M29 62h62" stroke="#0d9488" stroke-width="10" stroke-linecap="round"/>
    <circle cx="117" cy="62" r="10" fill="#f2b705"/>
  </g>
  <text x="450" y="528" text-anchor="middle" font-family="Arial, sans-serif" font-size="22" font-weight="700" fill="#dff7ef">Bangkok taxi and public transport</text>
</svg>
